<svg xmlns="http://www.w3.org/2000/svg" width="107.246" height="30.123" viewBox="0 0 107.246 30.123"><g transform="translate(-11.66 -18.72)"><rect width="3.215" height="23.396" transform="translate(11.66 18.72)" fill="#f9fd34"></rect><path d="M113.675,123.123v11.034H110.46V120.864h-7.674v13.293H99.57V117.97h9.144a2.4,2.4,0,0,1,1.758.765l2.56,2.753A2.4,2.4,0,0,1,113.675,123.123Z" transform="translate(-81.525 -92.042)" fill="#f9fd34"></path><path d="M325.967,53.361V63.438h4.642v3.215h-3.586a2.4,2.4,0,0,1-1.7-.7l-1.871-1.871a2.4,2.4,0,0,1-.7-1.7V53.36H320.48V50.466h2.271V45.18h3.215v5.287h4.642v2.894h-4.642Z" transform="translate(-286.391 -24.538)" fill="#f9fd34"></path><path d="M755.2,113.871v1.842a6.932,6.932,0,0,0-5.2-2.163,8.415,8.415,0,0,0,0,16.829,6.93,6.93,0,0,0,5.2-2.163v5.672H744.059v2.9h9.413a2.4,2.4,0,0,0,1.7-.7l2.547-2.547a2.4,2.4,0,0,0,.7-1.7V113.871H755.2Zm-.073,8.963a5.261,5.261,0,0,1-7.781,3.664,4.342,4.342,0,0,1-1.885-1.9,5.222,5.222,0,1,1,9.666-3.508,5.2,5.2,0,0,1,0,1.742Z" transform="translate(-676.917 -87.943)" fill="#f9fd34"></path><path d="M1027.548,117.97v2.894h-7.393v13.293h-3.215V122.75a2.4,2.4,0,0,1,.7-1.7l2.379-2.379a2.4,2.4,0,0,1,1.7-.7h5.828Z" transform="translate(-932.27 -92.042)" fill="#f9fd34"></path><path d="M1182.333,113.87v1.84a6.934,6.934,0,0,0-5.2-2.16,8.415,8.415,0,0,0,0,16.829,6.932,6.932,0,0,0,5.2-2.16v1.84h3.215V113.87Zm-2.522,12.614a5.272,5.272,0,0,1-7.2-7.2,4.3,4.3,0,0,1,1.847-1.846,5.272,5.272,0,0,1,7.2,7.2,4.306,4.306,0,0,1-1.845,1.846Z" transform="translate(-1073.026 -87.943)" fill="#f9fd34"></path><rect width="3.215" height="23.396" transform="translate(115.691 18.72)" fill="#f9fd34"></rect><path d="M505.129,124.875h-3.51A5.035,5.035,0,0,1,497.7,126.8a4.98,4.98,0,0,1-4.926-4.3h12.973l.009-.1a8.847,8.847,0,0,0-.091-2.458,8.053,8.053,0,0,0-15.933,0,8.728,8.728,0,0,0-.134,1.558c0,.3.015.606.044.9a8.206,8.206,0,0,0,8.059,7.529c5.453,0,7.427-5.048,7.427-5.048Zm-12.264-5.03a5.033,5.033,0,0,1,9.675,0h-9.676Z" transform="translate(-443.229 -87.488)" fill="#f9fd34"></path></g></svg>